<?xml version="1.0" encoding="UTF-8"?>
<!DOCTYPE svg PUBLIC "-//W3C//DTD SVG 1.0//EN" "http://www.w3.org/TR/2001/REC-SVG-20010904/DTD/svg10.dtd">
<!-- Creator: CorelDRAW 2017 -->
<svg xmlns="http://www.w3.org/2000/svg" xml:space="preserve" width="3120px" height="1828px" version="1.0" style="shape-rendering:geometricPrecision; text-rendering:geometricPrecision; image-rendering:optimizeQuality; fill-rule:evenodd; clip-rule:evenodd"
viewBox="0 0 3120 1827.33"
 xmlns:xlink="http://www.w3.org/1999/xlink">
 <defs>
  <style type="text/css">
   <![CDATA[
    .fil3 {fill:none}
    .fil0 {fill:#606062;fill-rule:nonzero}
    .fil2 {fill:#91D8F7;fill-rule:nonzero}
    .fil1 {fill:#2F93C7;fill-rule:nonzero}
   ]]>
  </style>
 </defs>
 <g id="Camada_x0020_1">
  <metadata id="CorelCorpID_0Corel-Layer"/>
  <g id="_2491029571504">
   <path class="fil0" d="M372.16 1448.81l-99.76 0 0 -221.77 -133.72 0 0 221.77 -106.14 0 0 -477.4 106.14 0 0 185.33 133.72 0 0 -185.33 99.76 0 0 477.4zm350.94 -362.37l-105.42 407.74c-10.38,37.07 -23.59,58.91 -39.63,65.51 -16.03,6.6 -51.17,9.91 -105.42,9.91l0 -65.19 33.26 0c13.68,0 20.51,-7.03 20.51,-21.09 0,-5.54 -1.17,-13.64 -3.53,-24.29l-100.47 -372.59 100.47 0 55.18 281.84 50.24 -281.84 94.81 0zm317.68 362.37l-94.81 0 0 -30.04c-6.6,13.63 -16.51,24.18 -29.71,31.64 -13.21,7.45 -28.07,11.18 -44.58,11.18 -26.41,0 -49.41,-10.01 -68.98,-30.04 -19.58,-20.02 -29.37,-49.42 -29.37,-88.19l0 -161.05c4.25,-33.66 15.8,-58.59 34.67,-74.78 18.87,-16.19 40.1,-24.28 63.68,-24.28 16.51,0 31.84,3.62 45.99,10.86 14.15,7.24 23.58,16.41 28.3,27.48l0 -150.18 94.81 0 0 477.4zm-94.81 -110.56l0 -125.91c0,-19.17 -4.13,-33.98 -12.38,-44.41 -8.26,-10.44 -18.28,-15.66 -30.07,-15.66 -11.32,0 -20.99,5.11 -29.01,15.34 -8.02,10.22 -12.03,25.14 -12.03,44.73l0 125.91c0,18.32 4.37,33.01 13.09,44.09 8.73,11.08 18.75,16.62 30.07,16.62 10.85,0 20.29,-5.22 28.3,-15.66 8.02,-10.44 12.03,-25.46 12.03,-45.05zm370.75 -157.86c-8.49,-0.85 -14.86,-1.28 -19.1,-1.28 -22.17,0 -39.74,4.79 -52.72,14.38 -12.97,9.59 -19.45,25.24 -19.45,46.97l0 208.35 -91.98 0 0 -361.09 89.15 0 0 63.91c6.13,-12.68 12.14,-23.01 18.28,-31 6.01,-8.09 12.97,-15.01 20.75,-20.98 7.67,-5.86 15.69,-10.33 23.82,-13.21 8.14,-2.98 18.63,-4.47 31.25,-4.47l0 98.42zm324.05 66.78c0,6.39 0,16.94 0,31.64 0,14.7 0,25.99 0,33.66 0,46.01 -8.84,82.12 -26.41,108.11 -17.57,26.1 -54.37,39.09 -110.14,39.09 -61.56,0 -100.95,-12.67 -118.28,-38.13 -17.33,-25.35 -26.06,-64.12 -26.06,-116.1l0 -37.18 0 -31.95c0,-49.53 8.14,-88.62 24.41,-117.17 16.27,-28.65 52.71,-42.92 109.31,-42.92 59.91,0 99.41,13.42 118.52,40.37 19.1,26.84 28.65,70.4 28.65,130.58zm-91.27 96.72l0 -149.97c0,-15.77 -4.6,-28.12 -13.8,-37.18 -9.2,-8.94 -20.16,-13.42 -32.9,-13.42 -13.21,0 -24.53,4.69 -33.96,14.06 -9.43,9.48 -14.15,22.69 -14.15,39.73l0 146.78c0,15.76 4.84,28.12 14.5,37.17 9.67,8.95 21.11,13.43 34.32,13.43 12.74,0 23.58,-4.27 32.55,-12.79 8.96,-8.62 13.44,-21.19 13.44,-37.81z"/>
   <path class="fil1" d="M1975.81 1076.86c1.97,1.97 2.96,4.39 2.96,7.26l0 303.23c0,8.6 -1.7,16.76 -5.1,24.46 -3.42,7.71 -7.9,14.43 -13.45,20.16 -5.56,5.74 -12.19,10.21 -19.89,13.44 -7.71,3.23 -15.86,4.84 -24.46,4.84l-161.83 0c-8.6,0 -16.76,-1.61 -24.46,-4.84 -7.71,-3.23 -14.44,-7.7 -20.17,-13.44 -5.73,-5.73 -10.21,-12.45 -13.44,-20.16 -3.22,-7.7 -4.84,-15.86 -4.84,-24.46l0 -115.06c0,-6.81 3.41,-10.22 10.22,-10.22l74.19 0c6.81,0 10.22,3.41 10.22,10.22l0 76.88c0,2.87 0.98,5.2 2.96,6.99 1.96,1.8 4.38,2.69 7.25,2.69l77.96 0c2.87,0 5.28,-0.89 7.26,-2.69 1.97,-1.79 2.96,-4.12 2.96,-6.99l0 -265.05c0,-2.87 0.89,-5.29 2.69,-7.26 1.79,-1.97 4.11,-2.96 6.98,-2.96l74.73 0c2.87,0 5.29,0.99 7.26,2.96z"/>
   <path class="fil1" d="M2136.06 1164.23l0 58.6c0,1.43 0.89,2.15 2.69,2.15l86.4 0c2.87,0 5.29,0.99 7.26,2.96 1.97,1.97 2.96,4.39 2.96,7.25l0 53.76c0,6.82 -3.41,10.22 -10.22,10.22l-86.4 0c-1.8,0 -2.69,0.9 -2.69,2.69l0 58.07c0,1.8 0.89,2.68 2.69,2.68l180.1 0c2.87,0 5.28,0.99 7.26,2.96 1.97,1.97 2.96,4.39 2.96,7.26l0 67.2c0,2.88 -0.99,5.29 -2.96,7.26 -1.98,1.98 -4.39,2.96 -7.26,2.96l-214.52 0c-8.59,0 -16.76,-1.61 -24.46,-4.84 -7.71,-3.23 -14.43,-7.7 -20.16,-13.44 -5.74,-5.73 -10.21,-12.45 -13.44,-20.16 -3.23,-7.7 -4.84,-15.86 -4.84,-24.46l0 -250.54c0,-8.61 1.61,-16.76 4.84,-24.47 3.23,-7.7 7.7,-14.33 13.44,-19.89 5.73,-5.55 12.45,-10.03 20.16,-13.44 7.7,-3.4 15.87,-5.11 24.46,-5.11l214.52 0c2.87,0 5.28,0.99 7.26,2.96 1.97,1.97 2.96,4.39 2.96,7.26l0 67.74c0,2.87 -0.99,5.2 -2.96,6.99 -1.98,1.8 -4.39,2.69 -7.26,2.69l-180.1 0c-1.8,0 -2.69,0.89 -2.69,2.69z"/>
   <path class="fil1" d="M2894.44 1164.23l0 58.6c0,1.43 0.89,2.15 2.69,2.15l86.41 0c2.86,0 5.28,0.99 7.25,2.96 1.97,1.97 2.96,4.39 2.96,7.25l0 53.76c0,6.82 -3.41,10.22 -10.21,10.22l-86.41 0c-1.8,0 -2.69,0.9 -2.69,2.69l0 58.07c0,1.8 0.89,2.68 2.69,2.68l180.11 0c2.86,0 5.28,0.99 7.25,2.96 1.97,1.97 2.96,4.39 2.96,7.26l0 67.2c0,2.88 -0.99,5.29 -2.96,7.26 -1.97,1.98 -4.39,2.96 -7.25,2.96l-214.52 0c-8.6,0 -16.76,-1.61 -24.46,-4.84 -7.72,-3.23 -14.44,-7.7 -20.16,-13.44 -5.74,-5.73 -10.22,-12.45 -13.45,-20.16 -3.22,-7.7 -4.83,-15.86 -4.83,-24.46l0 -250.54c0,-8.61 1.61,-16.76 4.83,-24.47 3.23,-7.7 7.71,-14.33 13.45,-19.89 5.72,-5.55 12.44,-10.03 20.16,-13.44 7.7,-3.4 15.86,-5.11 24.46,-5.11l214.52 0c2.86,0 5.28,0.99 7.25,2.96 1.97,1.97 2.96,4.39 2.96,7.26l0 67.74c0,2.87 -0.99,5.2 -2.96,6.99 -1.97,1.8 -4.39,2.69 -7.25,2.69l-180.11 0c-1.8,0 -2.69,0.89 -2.69,2.69z"/>
   <path class="fil1" d="M2516.76 1259.5l54.61 -75.92 72.04 -101.08c1.44,-2.5 3.6,-4.57 6.46,-6.18 2.87,-1.61 5.74,-2.42 8.6,-2.42l80.64 0c2.88,0 4.85,0.81 5.92,2.42 1.08,1.61 0.72,3.68 -1.07,6.18l-108.61 165.06c-1.42,2.51 -2.15,5.38 -2.15,8.6 0,3.23 0.73,6.1 2.15,8.6l115.59 176.88c1.8,2.52 2.16,4.58 1.08,6.19 -1.08,1.61 -3.04,2.42 -5.91,2.42l-80.65 0c-2.87,0 -5.73,-0.81 -8.6,-2.42 -2.86,-1.61 -5.02,-3.67 -6.46,-6.19l-79.03 -112.36 -54.61 -69.78z"/>
   <path class="fil2" d="M2565.23 1329.28l-79.03 112.36c-1.44,2.52 -3.59,4.58 -6.46,6.19 -2.87,1.61 -5.73,2.42 -8.6,2.42l-80.64 0c-2.87,0 -4.84,-0.81 -5.91,-2.42 -1.08,-1.61 -0.73,-3.67 1.07,-6.19l115.59 -176.88c1.43,-2.5 2.15,-5.37 2.15,-8.6 0,-3.22 -0.72,-6.09 -2.15,-8.6l-108.6 -165.06c-1.8,-2.5 -2.15,-4.57 -1.08,-6.18 1.08,-1.61 3.04,-2.42 5.92,-2.42l80.64 0c2.87,0 5.73,0.81 8.6,2.42 2.87,1.61 5.02,3.68 6.46,6.18l72.04 101.08 54.61 75.92 -54.61 69.78z"/>
   <g>
    <path class="fil1" d="M781.52 1746.98c0,0.89 -0.11,1.59 -0.33,2.11 -0.22,0.52 -0.93,0.89 -2.11,1.11 -1.19,0.22 -3,0.33 -5.44,0.33 -2.44,0 -5.96,0 -10.55,0l0 -102.8c0,-2.07 0.26,-3.66 0.78,-4.77 0.52,-1.11 1.48,-1.93 2.89,-2.45 1.4,-0.51 3.29,-0.81 5.66,-0.88 2.37,-0.08 5.4,-0.11 9.1,-0.11l0 107.46zm-18.21 -142.77c0.15,-4 1.04,-7.22 2.67,-9.66 1.63,-2.44 4.22,-3.66 7.77,-3.66 3.4,0 5.77,0.96 7.11,2.89 1.33,1.92 1.92,5.25 1.77,9.99 0,4.59 -0.85,8.14 -2.55,10.65 -1.7,2.52 -4.26,3.78 -7.66,3.78 -2.96,0 -5.22,-1.04 -6.77,-3.11 -1.56,-2.07 -2.34,-5.7 -2.34,-10.88zm49.9 40.63c2.22,-0.88 4.74,-1.81 7.55,-2.77 2.81,-0.96 5.77,-1.78 8.88,-2.44 3.11,-0.67 6.25,-1.23 9.44,-1.67 3.18,-0.44 6.25,-0.67 9.21,-0.67 11.69,0 19.83,2.26 24.42,6.78 4.59,4.51 6.89,12.17 6.89,22.98l0 79.93c0,0.89 -0.11,1.59 -0.34,2.11 -0.22,0.52 -0.92,0.89 -2.11,1.11 -1.18,0.22 -3.03,0.33 -5.55,0.33 -2.51,0 -6.07,0 -10.65,0l0 -78.15c0,-7.11 -0.82,-12.1 -2.45,-14.99 -1.63,-2.89 -5.25,-4.33 -10.88,-4.33 -2.36,0 -5.07,0.33 -8.1,1 -3.03,0.66 -5.81,1.66 -8.33,3l0 89.92c0,0.89 -0.11,1.59 -0.33,2.11 -0.22,0.52 -0.93,0.89 -2.11,1.11 -1.18,0.22 -2.96,0.33 -5.33,0.33 -2.37,0 -5.77,0 -10.21,0l0 -105.69zm143.37 11.1c-1.48,-1.18 -2.96,-1.96 -4.44,-2.33 -1.48,-0.37 -3.41,-0.55 -5.77,-0.55 -2.52,0 -4.93,0.59 -7.22,1.77 -2.29,1.19 -4.37,3.37 -6.22,6.56 -1.85,3.18 -3.33,7.66 -4.44,13.43 -1.11,5.77 -1.66,13.17 -1.66,22.2 0,8.29 0.37,15.03 1.11,20.21 0.74,5.18 1.85,9.21 3.33,12.1 1.48,2.88 3.22,4.81 5.22,5.77 1.99,0.96 4.32,1.44 6.99,1.44 2.52,0 4.88,-0.25 7.1,-0.77 2.23,-0.52 4.22,-1.37 6,-2.56l0 -77.27zm0 -60.39c0,-2.07 0.26,-3.66 0.78,-4.77 0.51,-1.11 1.44,-1.93 2.77,-2.44 1.34,-0.52 3.15,-0.82 5.44,-0.89 2.3,-0.08 5.29,-0.11 8.99,-0.11l0 158.75c-3.7,1.78 -8.17,3.33 -13.43,4.66 -5.25,1.34 -11.36,2 -18.32,2 -4.88,0 -9.51,-0.55 -13.87,-1.66 -4.37,-1.11 -8.22,-3.52 -11.55,-7.22 -3.33,-3.7 -5.96,-9.1 -7.88,-16.21 -1.93,-7.1 -2.89,-16.65 -2.89,-28.64 0,-10.95 0.89,-20.35 2.67,-28.2 1.77,-7.84 4.22,-14.25 7.32,-19.2 3.11,-4.96 6.74,-8.59 10.88,-10.88 4.15,-2.3 8.59,-3.45 13.32,-3.45 6.67,0 11.92,1.48 15.77,4.45l0 -46.19zm68.77 151.43c0,0.89 -0.11,1.59 -0.34,2.11 -0.22,0.52 -0.92,0.89 -2.1,1.11 -1.19,0.22 -3,0.33 -5.45,0.33 -2.44,0 -5.95,0 -10.54,0l0 -102.8c0,-2.07 0.26,-3.66 0.78,-4.77 0.51,-1.11 1.48,-1.93 2.88,-2.45 1.41,-0.51 3.3,-0.81 5.66,-0.88 2.37,-0.08 5.41,-0.11 9.11,-0.11l0 107.46zm-18.21 -142.77c0.15,-4 1.04,-7.22 2.67,-9.66 1.62,-2.44 4.21,-3.66 7.77,-3.66 3.4,0 5.77,0.96 7.1,2.89 1.33,1.92 1.93,5.25 1.78,9.99 0,4.59 -0.85,8.14 -2.56,10.65 -1.7,2.52 -4.25,3.78 -7.66,3.78 -2.96,0 -5.21,-1.04 -6.77,-3.11 -1.55,-2.07 -2.33,-5.7 -2.33,-10.88zm43.9 40.86c-0.3,-1.34 -0.37,-2.41 -0.22,-3.22 0.15,-0.82 0.85,-1.37 2.11,-1.67 1.26,-0.3 3.25,-0.48 5.99,-0.55 2.74,-0.08 6.55,-0.11 11.44,-0.11l7.1 35.52c1.19,5.77 2.3,11.95 3.33,18.54 1.04,6.59 1.93,12.69 2.67,18.32 0.89,6.51 1.77,12.95 2.66,19.32l0.45 0c0.74,-6.52 1.55,-13.03 2.44,-19.54 0.74,-5.63 1.59,-11.7 2.55,-18.21 0.96,-6.51 2.04,-12.73 3.22,-18.65l6 -31.31c0.14,-1.04 0.37,-1.81 0.66,-2.33 0.3,-0.52 1.08,-0.89 2.33,-1.11 1.26,-0.22 3.11,-0.37 5.55,-0.44 2.45,-0.08 5.96,-0.11 10.55,-0.11l-25.53 111.68c-1.63,0.29 -3.78,0.48 -6.44,0.55 -2.67,0.08 -4.74,0.11 -6.22,0.11 -2.07,0 -3.74,-1.03 -4.99,-3.1 -1.26,-2.08 -2.26,-4.67 -3,-7.78l-22.65 -95.91zm112.51 101.91c0,0.89 -0.11,1.59 -0.33,2.11 -0.23,0.52 -0.93,0.89 -2.11,1.11 -1.19,0.22 -3,0.33 -5.44,0.33 -2.45,0 -5.96,0 -10.55,0l0 -102.8c0,-2.07 0.26,-3.66 0.78,-4.77 0.51,-1.11 1.48,-1.93 2.88,-2.45 1.41,-0.51 3.3,-0.81 5.66,-0.88 2.37,-0.08 5.41,-0.11 9.11,-0.11l0 107.46zm-18.21 -142.77c0.15,-4 1.04,-7.22 2.67,-9.66 1.62,-2.44 4.21,-3.66 7.77,-3.66 3.4,0 5.77,0.96 7.1,2.89 1.33,1.92 1.93,5.25 1.78,9.99 0,4.59 -0.85,8.14 -2.55,10.65 -1.71,2.52 -4.26,3.78 -7.67,3.78 -2.96,0 -5.21,-1.04 -6.77,-3.11 -1.55,-2.07 -2.33,-5.7 -2.33,-10.88zm96.97 51.73c-1.48,-1.18 -2.96,-1.96 -4.44,-2.33 -1.48,-0.37 -3.41,-0.55 -5.78,-0.55 -2.51,0 -4.92,0.59 -7.21,1.77 -2.3,1.19 -4.37,3.37 -6.22,6.56 -1.85,3.18 -3.33,7.66 -4.44,13.43 -1.11,5.77 -1.67,13.17 -1.67,22.2 0,8.29 0.37,15.03 1.11,20.21 0.74,5.18 1.85,9.21 3.34,12.1 1.47,2.88 3.21,4.81 5.21,5.77 2,0.96 4.33,1.44 7,1.44 2.51,0 4.88,-0.25 7.1,-0.77 2.22,-0.52 4.22,-1.37 6,-2.56l0 -77.27zm0 -60.39c0,-2.07 0.26,-3.66 0.77,-4.77 0.52,-1.11 1.45,-1.93 2.78,-2.44 1.33,-0.52 3.14,-0.82 5.44,-0.89 2.29,-0.08 5.29,-0.11 8.99,-0.11l0 158.75c-3.7,1.78 -8.18,3.33 -13.43,4.66 -5.26,1.34 -11.36,2 -18.32,2 -4.88,0 -9.51,-0.55 -13.88,-1.66 -4.36,-1.11 -8.21,-3.52 -11.54,-7.22 -3.33,-3.7 -5.96,-9.1 -7.88,-16.21 -1.93,-7.1 -2.89,-16.65 -2.89,-28.64 0,-10.95 0.89,-20.35 2.66,-28.2 1.78,-7.84 4.22,-14.25 7.33,-19.2 3.11,-4.96 6.74,-8.59 10.88,-10.88 4.14,-2.3 8.59,-3.45 13.32,-3.45 6.66,0 11.92,1.48 15.77,4.45l0 -46.19zm116.28 149.21c-4.29,2.37 -9.36,4.29 -15.21,5.77 -5.85,1.48 -11.8,2.22 -17.87,2.22 -6.66,0 -12.14,-0.74 -16.43,-2.22 -4.3,-1.48 -7.7,-3.77 -10.22,-6.88 -2.51,-3.11 -4.25,-6.96 -5.21,-11.55 -0.97,-4.59 -1.45,-9.99 -1.45,-16.21l0 -72.6c0,-0.89 0.11,-1.59 0.34,-2.11 0.22,-0.52 0.88,-0.89 1.99,-1.11 1.11,-0.22 2.93,-0.37 5.44,-0.44 2.52,-0.08 6.15,-0.11 10.88,-0.11l0 77.93c0,7.25 0.96,12.32 2.89,15.21 1.92,2.88 5.92,4.33 11.99,4.33 2.07,0 4.48,-0.26 7.22,-0.78 2.73,-0.52 5.29,-1.59 7.65,-3.22l0 -89.7c0,-0.89 0.12,-1.59 0.34,-2.11 0.22,-0.52 0.89,-0.89 2,-1.11 1.11,-0.22 2.88,-0.37 5.33,-0.44 2.44,-0.08 5.88,-0.11 10.32,-0.11l0 105.24zm28.58 -95.25c0,-1.19 0.18,-2.34 0.55,-3.45 0.37,-1.11 1,-2.03 1.89,-2.77 1.93,-1.18 5.92,-2.48 11.99,-3.89 6.07,-1.4 13.32,-2.11 21.76,-2.11 9.62,0 16.62,2 20.98,6 4.37,4 6.55,11.03 6.55,21.09l0 11.77c0,6.37 0,12.77 0,19.21 0,6.44 -0.07,12.65 -0.22,18.65 -0.15,5.99 -0.29,11.65 -0.44,16.98 -0.15,5.33 -0.37,10.07 -0.67,14.21 -2.96,1.78 -7.03,3.48 -12.21,5.11 -5.18,1.63 -11.4,2.44 -18.65,2.44 -4,0 -7.92,-0.29 -11.77,-0.89 -3.85,-0.59 -7.25,-2.07 -10.21,-4.44 -2.96,-2.36 -5.33,-5.81 -7.11,-10.32 -1.77,-4.52 -2.66,-10.55 -2.66,-18.1 0,-7.69 0.85,-13.91 2.55,-18.65 1.7,-4.73 3.92,-8.43 6.66,-11.1 2.74,-2.66 5.89,-4.44 9.44,-5.33 3.55,-0.89 7.18,-1.33 10.88,-1.33 2.51,0 5.29,0.18 8.32,0.55 3.04,0.37 5.67,1.15 7.89,2.34l0 -17.55c0,-5.18 -1.19,-8.65 -3.56,-10.43 -2.36,-1.78 -5.77,-2.67 -10.21,-2.67 -5.62,0 -11.1,0.49 -16.43,1.45 -5.33,0.96 -9.62,2.11 -12.88,3.44 -1.03,-1.78 -1.7,-3.59 -2,-5.44 -0.29,-1.85 -0.44,-3.44 -0.44,-4.77zm45.52 48.62c-1.48,-0.74 -3.19,-1.26 -5.11,-1.55 -1.92,-0.3 -3.7,-0.45 -5.33,-0.45 -2.22,0 -4.33,0.26 -6.33,0.78 -2,0.52 -3.73,1.59 -5.21,3.22 -1.49,1.63 -2.67,3.89 -3.56,6.77 -0.88,2.89 -1.33,6.77 -1.33,11.66 0,4 0.33,7.25 1,9.77 0.67,2.52 1.63,4.48 2.89,5.88 1.25,1.41 2.77,2.33 4.55,2.78 1.77,0.44 3.77,0.66 5.99,0.66 2.52,0 4.85,-0.37 7,-1.11 2.14,-0.74 3.73,-1.62 4.77,-2.66 0.15,-1.78 0.26,-4.11 0.33,-6.99 0.08,-2.89 0.15,-5.96 0.23,-9.22 0.07,-3.25 0.11,-6.59 0.11,-9.99 0,-3.4 0,-6.59 0,-9.55zm66.1 48.85c0,0.89 -0.11,1.59 -0.33,2.11 -0.22,0.52 -0.89,0.89 -2,1.11 -1.11,0.22 -2.89,0.33 -5.33,0.33 -2.44,0 -5.88,0 -10.32,0l0 -154.98c0,-2.07 0.25,-3.66 0.77,-4.77 0.52,-1.11 1.45,-1.93 2.78,-2.44 1.33,-0.52 3.18,-0.82 5.55,-0.89 2.37,-0.08 5.33,-0.11 8.88,-0.11l0 159.64zm50.34 0c0,0.89 -0.11,1.59 -0.33,2.11 -0.23,0.52 -0.93,0.89 -2.11,1.11 -1.19,0.22 -3,0.33 -5.44,0.33 -2.45,0 -5.96,0 -10.55,0l0 -102.8c0,-2.07 0.26,-3.66 0.78,-4.77 0.51,-1.11 1.48,-1.93 2.88,-2.45 1.41,-0.51 3.3,-0.81 5.67,-0.88 2.36,-0.08 5.4,-0.11 9.1,-0.11l0 107.46zm-18.21 -142.77c0.15,-4 1.04,-7.22 2.67,-9.66 1.63,-2.44 4.22,-3.66 7.77,-3.66 3.4,0 5.77,0.96 7.1,2.89 1.34,1.92 1.93,5.25 1.78,9.99 0,4.59 -0.85,8.14 -2.55,10.65 -1.71,2.52 -4.26,3.78 -7.66,3.78 -2.97,0 -5.22,-1.04 -6.78,-3.11 -1.55,-2.07 -2.33,-5.7 -2.33,-10.88zm107.63 35.31c0.29,0.29 0.59,0.73 0.88,1.33 0.3,0.44 0.56,1.03 0.78,1.77 0.22,0.74 0.33,1.56 0.33,2.45 0,1.03 -0.14,2.25 -0.44,3.66 -0.3,1.41 -0.89,3.15 -1.78,5.22l-41.74 79.93 19.54 0c6.22,0 11.1,-0.26 14.65,-0.78 3.56,-0.52 6.44,-1.07 8.66,-1.66 0.3,1.03 0.48,2.37 0.56,3.99 0.07,1.63 0.11,2.96 0.11,4 -0.15,3.85 -0.67,6.66 -1.55,8.44 -0.89,1.77 -2.82,2.66 -5.78,2.66l-54.4 0c-0.59,-0.44 -1.11,-1.11 -1.55,-2 -1.04,-1.48 -1.55,-3.77 -1.55,-6.88 0,-2.37 0.51,-4.66 1.55,-6.88l43.07 -79.94 -22.64 0c-4.3,0 -8.14,0.12 -11.55,0.34 -3.4,0.22 -6.29,0.48 -8.66,0.77 -0.29,-2.07 -0.48,-3.81 -0.55,-5.21 -0.08,-1.41 -0.11,-2.56 -0.11,-3.44 0,-5.18 1.92,-7.77 5.77,-7.77l56.4 0zm24.58 9.99c0,-1.19 0.18,-2.34 0.55,-3.45 0.37,-1.11 1,-2.03 1.89,-2.77 1.92,-1.18 5.92,-2.48 11.99,-3.89 6.07,-1.4 13.32,-2.11 21.76,-2.11 9.62,0 16.62,2 20.98,6 4.37,4 6.55,11.03 6.55,21.09l0 11.77c0,6.37 0,12.77 0,19.21 0,6.44 -0.07,12.65 -0.22,18.65 -0.15,5.99 -0.3,11.65 -0.44,16.98 -0.15,5.33 -0.37,10.07 -0.67,14.21 -2.96,1.78 -7.03,3.48 -12.21,5.11 -5.18,1.63 -11.4,2.44 -18.65,2.44 -4,0 -7.92,-0.29 -11.77,-0.89 -3.85,-0.59 -7.25,-2.07 -10.21,-4.44 -2.97,-2.36 -5.33,-5.81 -7.11,-10.32 -1.78,-4.52 -2.66,-10.55 -2.66,-18.1 0,-7.69 0.85,-13.91 2.55,-18.65 1.7,-4.73 3.92,-8.43 6.66,-11.1 2.74,-2.66 5.88,-4.44 9.44,-5.33 3.55,-0.89 7.18,-1.33 10.88,-1.33 2.51,0 5.29,0.18 8.32,0.55 3.04,0.37 5.66,1.15 7.88,2.34l0 -17.55c0,-5.18 -1.18,-8.65 -3.55,-10.43 -2.37,-1.78 -5.77,-2.67 -10.21,-2.67 -5.63,0 -11.1,0.49 -16.43,1.45 -5.33,0.96 -9.62,2.11 -12.88,3.44 -1.04,-1.78 -1.7,-3.59 -2,-5.44 -0.29,-1.85 -0.44,-3.44 -0.44,-4.77zm45.51 48.62c-1.47,-0.74 -3.18,-1.26 -5.1,-1.55 -1.93,-0.3 -3.7,-0.45 -5.33,-0.45 -2.22,0 -4.33,0.26 -6.33,0.78 -2,0.52 -3.74,1.59 -5.22,3.22 -1.48,1.63 -2.66,3.89 -3.55,6.77 -0.89,2.89 -1.33,6.77 -1.33,11.66 0,4 0.33,7.25 1,9.77 0.66,2.52 1.63,4.48 2.88,5.88 1.26,1.41 2.78,2.33 4.56,2.78 1.77,0.44 3.77,0.66 5.99,0.66 2.52,0 4.85,-0.37 7,-1.11 2.14,-0.74 3.73,-1.62 4.77,-2.66 0.15,-1.78 0.26,-4.11 0.33,-6.99 0.08,-2.89 0.15,-5.96 0.22,-9.22 0.08,-3.25 0.11,-6.59 0.11,-9.99 0,-3.4 0,-6.59 0,-9.55zm103.19 -50.84c0,1.18 -0.15,2.66 -0.45,4.44 -0.29,1.77 -0.81,3.62 -1.55,5.55 -1.78,-1.04 -4.07,-1.96 -6.88,-2.78 -2.81,-0.81 -5.7,-1.22 -8.66,-1.22 -2.67,0 -5.29,0.44 -7.88,1.33 -2.59,0.89 -4.93,2.85 -7,5.89 -2.07,3.03 -3.77,7.47 -5.1,13.32 -1.34,5.85 -2,13.73 -2,23.65 0,7.84 0.4,14.28 1.22,19.31 0.81,5.04 2.03,9.03 3.66,11.99 1.63,2.96 3.66,5.04 6.11,6.22 2.44,1.18 5.36,1.78 8.77,1.78 3.55,0 6.88,-0.56 9.99,-1.67 3.11,-1.11 5.62,-2.26 7.55,-3.44 0.59,2.07 1.03,3.85 1.33,5.33 0.3,1.48 0.44,2.96 0.44,4.44 0,2.66 -1.77,5.03 -5.32,7.1 -3.56,2.08 -8.29,3.41 -14.21,4l-2.22 10.88 3.77 0c2.66,0 5.14,1.07 7.44,3.22 2.29,2.15 3.44,5.81 3.44,10.99 0,5.77 -1.67,10.33 -5,13.66 -3.33,3.33 -7.58,4.99 -12.76,4.99 -1.78,0 -3.41,-0.15 -4.89,-0.44 -1.48,-0.3 -2.81,-0.59 -3.99,-0.89 -1.34,-0.44 -2.52,-0.89 -3.56,-1.33 0.3,-1.34 0.59,-2.67 0.89,-4 0.3,-1.04 0.59,-2.07 0.89,-3.11 0.29,-1.03 0.67,-1.7 1.11,-2 0.74,-0.74 1.96,-0.55 3.66,0.56 1.7,1.11 3.74,1.66 6.11,1.66 4.74,0 7.1,-2.51 7.1,-7.54 0,-2.82 -0.59,-4.74 -1.77,-5.78 -1.19,-1.03 -2.82,-1.55 -4.89,-1.55 -1.48,0 -2.77,0.07 -3.88,0.22 -1.11,0.15 -2.04,0.3 -2.78,0.44 -0.89,0.15 -1.7,0.3 -2.44,0.45l3.77 -20.43c-4.59,-0.3 -8.62,-1.29 -12.1,-3 -3.48,-1.7 -6.44,-4.62 -8.88,-8.77 -2.44,-4.14 -4.29,-9.69 -5.55,-16.65 -1.26,-6.96 -1.89,-15.84 -1.89,-26.64 0,-13.33 1.22,-23.95 3.67,-31.87 2.44,-7.92 5.58,-13.98 9.43,-18.2 3.85,-4.22 8.14,-6.96 12.88,-8.22 4.74,-1.26 9.4,-1.89 13.99,-1.89 5.18,0 9.55,0.93 13.1,2.78 3.55,1.85 5.33,4.26 5.33,7.22zm22.36 2.22c0,-1.19 0.19,-2.34 0.56,-3.45 0.37,-1.11 0.99,-2.03 1.88,-2.77 1.93,-1.18 5.92,-2.48 11.99,-3.89 6.07,-1.4 13.33,-2.11 21.76,-2.11 9.62,0 16.62,2 20.99,6 4.36,4 6.54,11.03 6.54,21.09l0 11.77c0,6.37 0,12.77 0,19.21 0,6.44 -0.07,12.65 -0.22,18.65 -0.14,5.99 -0.29,11.65 -0.44,16.98 -0.15,5.33 -0.37,10.07 -0.67,14.21 -2.96,1.78 -7.03,3.48 -12.21,5.11 -5.18,1.63 -11.4,2.44 -18.65,2.44 -4,0 -7.92,-0.29 -11.77,-0.89 -3.85,-0.59 -7.25,-2.07 -10.21,-4.44 -2.96,-2.36 -5.33,-5.81 -7.11,-10.32 -1.77,-4.52 -2.66,-10.55 -2.66,-18.1 0,-7.69 0.85,-13.91 2.55,-18.65 1.7,-4.73 3.92,-8.43 6.66,-11.1 2.74,-2.66 5.89,-4.44 9.44,-5.33 3.55,-0.89 7.18,-1.33 10.88,-1.33 2.52,0 5.29,0.18 8.33,0.55 3.03,0.37 5.66,1.15 7.88,2.34l0 -17.55c0,-5.18 -1.19,-8.65 -3.55,-10.43 -2.37,-1.78 -5.78,-2.67 -10.22,-2.67 -5.62,0 -11.1,0.49 -16.43,1.45 -5.33,0.96 -9.62,2.11 -12.88,3.44 -1.03,-1.78 -1.7,-3.59 -2,-5.44 -0.29,-1.85 -0.44,-3.44 -0.44,-4.77zm45.52 48.62c-1.48,-0.74 -3.18,-1.26 -5.11,-1.55 -1.92,-0.3 -3.7,-0.45 -5.33,-0.45 -2.22,0 -4.33,0.26 -6.33,0.78 -1.99,0.52 -3.73,1.59 -5.21,3.22 -1.48,1.63 -2.67,3.89 -3.56,6.77 -0.88,2.89 -1.33,6.77 -1.33,11.66 0,4 0.34,7.25 1,9.77 0.67,2.52 1.63,4.48 2.89,5.88 1.26,1.41 2.77,2.33 4.55,2.78 1.78,0.44 3.77,0.66 5.99,0.66 2.52,0 4.85,-0.37 7,-1.11 2.14,-0.74 3.74,-1.62 4.77,-2.66 0.15,-1.78 0.26,-4.11 0.34,-6.99 0.07,-2.89 0.14,-5.96 0.22,-9.22 0.07,-3.25 0.11,-6.59 0.11,-9.99 0,-3.4 0,-6.59 0,-9.55zm-45.3 -86.15c3.85,-6.21 8,-10.54 12.44,-12.99 4.44,-2.44 8.66,-3.66 12.65,-3.66 2.37,0 4.3,0.55 5.78,1.66 1.48,1.11 2.85,2.3 4.1,3.56 1.26,1.26 2.59,2.44 4,3.55 1.41,1.11 3.22,1.67 5.44,1.67 2.66,0 4.74,-0.45 6.22,-1.34 1.48,-0.89 2.66,-1.85 3.55,-2.88 0.89,-1.04 1.67,-2 2.33,-2.89 0.67,-0.89 1.44,-1.33 2.33,-1.33 0.89,0 1.74,0.55 2.56,1.66 0.81,1.11 1.51,2.26 2.1,3.44 0.6,1.49 1.19,3.11 1.78,4.89 -0.29,0.59 -1.07,1.74 -2.33,3.44 -1.26,1.7 -2.96,3.48 -5.11,5.33 -2.14,1.85 -4.62,3.48 -7.44,4.88 -2.81,1.41 -5.92,2.11 -9.32,2.11 -2.96,0 -5.26,-0.55 -6.88,-1.66 -1.63,-1.11 -3.04,-2.33 -4.22,-3.67 -1.19,-1.33 -2.33,-2.55 -3.44,-3.66 -1.11,-1.11 -2.71,-1.66 -4.78,-1.66 -1.92,0 -3.55,0.44 -4.88,1.33 -1.33,0.89 -2.48,1.89 -3.44,3 -0.97,1.11 -1.82,2.1 -2.56,2.99 -0.74,0.89 -1.48,1.34 -2.22,1.34 -1.18,0 -2.33,-0.45 -3.44,-1.34 -1.11,-0.89 -2.03,-1.92 -2.77,-3.11 -0.89,-1.33 -1.71,-2.88 -2.45,-4.66zm88.53 83.04c0,-20.28 3.22,-34.97 9.66,-44.07 6.44,-9.1 15.51,-13.66 27.2,-13.66 5.77,0 10.84,0.86 15.21,2.56 4.37,1.7 7.96,4.73 10.77,9.1 2.81,4.37 4.92,10.22 6.33,17.54 1.4,7.33 2.11,16.62 2.11,27.87 0,20.72 -3.11,35.63 -9.33,44.74 -6.22,9.1 -15.25,13.65 -27.09,13.65 -5.77,0 -10.8,-0.66 -15.1,-2 -4.29,-1.33 -7.92,-4.03 -10.88,-8.1 -2.96,-4.07 -5.18,-9.92 -6.66,-17.54 -1.48,-7.62 -2.22,-17.65 -2.22,-30.09zm19.54 0.45c0,9.18 0.33,16.5 1,21.98 0.67,5.48 1.67,9.69 3,12.66 1.33,2.96 3,4.92 4.99,5.88 2,0.96 4.26,1.44 6.78,1.44 2.36,0 4.55,-0.59 6.55,-1.77 1.99,-1.19 3.73,-3.41 5.21,-6.66 1.48,-3.26 2.63,-7.63 3.45,-13.11 0.81,-5.47 1.22,-12.58 1.22,-21.31 0,-8.88 -0.34,-16.02 -1,-21.43 -0.67,-5.4 -1.63,-9.58 -2.89,-12.54 -1.26,-2.96 -2.85,-4.96 -4.77,-6 -1.93,-1.03 -4.22,-1.55 -6.89,-1.55 -2.51,0 -4.77,0.59 -6.77,1.77 -2,1.19 -3.74,3.34 -5.22,6.44 -1.48,3.11 -2.62,7.44 -3.44,12.99 -0.81,5.55 -1.22,12.62 -1.22,21.21zm160.25 -39.53c-1.48,-1.18 -2.96,-1.96 -4.44,-2.33 -1.48,-0.37 -3.41,-0.55 -5.78,-0.55 -2.51,0 -4.92,0.59 -7.21,1.77 -2.3,1.19 -4.37,3.37 -6.22,6.56 -1.85,3.18 -3.33,7.66 -4.44,13.43 -1.11,5.77 -1.66,13.17 -1.66,22.2 0,8.29 0.37,15.03 1.11,20.21 0.74,5.18 1.85,9.21 3.33,12.1 1.48,2.88 3.22,4.81 5.21,5.77 2,0.96 4.33,1.44 7,1.44 2.51,0 4.88,-0.25 7.1,-0.77 2.22,-0.52 4.22,-1.37 6,-2.56l0 -77.27zm0 -60.39c0,-2.07 0.26,-3.66 0.77,-4.77 0.52,-1.11 1.45,-1.93 2.78,-2.44 1.33,-0.52 3.15,-0.82 5.44,-0.89 2.3,-0.08 5.29,-0.11 8.99,-0.11l0 158.75c-3.7,1.78 -8.18,3.33 -13.43,4.66 -5.26,1.34 -11.36,2 -18.32,2 -4.88,0 -9.51,-0.55 -13.88,-1.66 -4.36,-1.11 -8.21,-3.52 -11.54,-7.22 -3.33,-3.7 -5.96,-9.1 -7.88,-16.21 -1.93,-7.1 -2.89,-16.65 -2.89,-28.64 0,-10.95 0.89,-20.35 2.66,-28.2 1.78,-7.84 4.22,-14.25 7.33,-19.2 3.11,-4.96 6.74,-8.59 10.88,-10.88 4.15,-2.3 8.59,-3.45 13.32,-3.45 6.66,0 11.92,1.48 15.77,4.45l0 -46.19z"/>
    <path class="fil1" d="M2189.04 1637.29c18.8,0 28.19,11.92 28.19,35.75 0,4.89 -0.18,9.92 -0.55,15.1 -0.37,5.18 -1,9.77 -1.89,13.77 -3.85,0.74 -7.92,1.33 -12.21,1.77 -4.29,0.45 -8.55,0.82 -12.77,1.11 -4.21,0.3 -8.17,0.48 -11.88,0.56 -3.7,0.07 -6.88,0.11 -9.54,0.11 0.15,5.92 0.7,10.8 1.66,14.65 0.96,3.85 2.26,6.89 3.89,9.11 1.63,2.22 3.7,3.77 6.21,4.66 2.52,0.89 5.48,1.33 8.89,1.33 4.44,0 8.8,-0.63 13.1,-1.89 4.29,-1.25 8.36,-2.92 12.21,-4.99 0.59,1.63 1,3.63 1.22,5.99 0.22,2.37 0.33,4.44 0.33,6.22 0,1.78 -0.81,3.41 -2.44,4.89 -1.63,1.48 -3.85,2.77 -6.66,3.88 -2.81,1.11 -6.07,1.96 -9.77,2.55 -3.7,0.6 -7.62,0.89 -11.77,0.89 -5.18,0 -9.95,-0.66 -14.32,-2 -4.37,-1.33 -8.1,-3.88 -11.21,-7.66 -3.11,-3.77 -5.55,-9.06 -7.33,-15.87 -1.78,-6.81 -2.66,-15.62 -2.66,-26.42 0,-13.92 1.14,-25.06 3.44,-33.42 2.29,-8.36 5.25,-14.77 8.88,-19.21 3.63,-4.44 7.81,-7.36 12.54,-8.77 4.74,-1.4 9.55,-2.11 14.44,-2.11zm-2 15.77c-2.22,0 -4.37,0.55 -6.44,1.66 -2.07,1.11 -3.96,3.11 -5.66,6 -1.71,2.89 -3.11,6.73 -4.22,11.54 -1.11,4.82 -1.82,11 -2.11,18.55 2.07,0 4.44,0 7.1,0 2.67,0 5.37,-0.12 8.11,-0.34 2.74,-0.22 5.4,-0.48 7.99,-0.78 2.59,-0.29 4.85,-0.74 6.77,-1.33 0.45,-2.07 0.74,-4.29 0.89,-6.66 0.15,-2.37 0.22,-4.59 0.22,-6.66 -0.14,-7.99 -1.11,-13.65 -2.88,-16.98 -1.78,-3.34 -5.03,-5 -9.77,-5zm88.97 -3.55c0,-1.19 0.19,-2.34 0.56,-3.45 0.37,-1.11 1,-2.03 1.88,-2.77 1.93,-1.18 5.92,-2.48 11.99,-3.89 6.07,-1.4 13.33,-2.11 21.76,-2.11 9.63,0 16.62,2 20.99,6 4.36,4 6.55,11.03 6.55,21.09l0 11.77c0,6.37 0,12.77 0,19.21 0,6.44 -0.08,12.65 -0.23,18.65 -0.14,5.99 -0.29,11.65 -0.44,16.98 -0.15,5.33 -0.37,10.07 -0.67,14.21 -2.96,1.78 -7.03,3.48 -12.21,5.11 -5.18,1.63 -11.4,2.44 -18.65,2.44 -4,0 -7.92,-0.29 -11.77,-0.89 -3.85,-0.59 -7.25,-2.07 -10.21,-4.44 -2.96,-2.36 -5.33,-5.81 -7.11,-10.32 -1.77,-4.52 -2.66,-10.55 -2.66,-18.1 0,-7.69 0.85,-13.91 2.55,-18.65 1.71,-4.73 3.93,-8.43 6.66,-11.1 2.74,-2.66 5.89,-4.44 9.44,-5.33 3.55,-0.89 7.18,-1.33 10.88,-1.33 2.52,0 5.29,0.18 8.33,0.55 3.03,0.37 5.66,1.15 7.88,2.34l0 -17.55c0,-5.18 -1.19,-8.65 -3.55,-10.43 -2.37,-1.78 -5.78,-2.67 -10.22,-2.67 -5.62,0 -11.1,0.49 -16.43,1.45 -5.33,0.96 -9.62,2.11 -12.88,3.44 -1.03,-1.78 -1.7,-3.59 -2,-5.44 -0.29,-1.85 -0.44,-3.44 -0.44,-4.77zm45.52 48.62c-1.48,-0.74 -3.18,-1.26 -5.11,-1.55 -1.92,-0.3 -3.7,-0.45 -5.33,-0.45 -2.22,0 -4.33,0.26 -6.33,0.78 -1.99,0.52 -3.73,1.59 -5.21,3.22 -1.48,1.63 -2.67,3.89 -3.55,6.77 -0.89,2.89 -1.34,6.77 -1.34,11.66 0,4 0.34,7.25 1,9.77 0.67,2.52 1.63,4.48 2.89,5.88 1.26,1.41 2.77,2.33 4.55,2.78 1.78,0.44 3.77,0.66 5.99,0.66 2.52,0 4.85,-0.37 7,-1.11 2.14,-0.74 3.74,-1.62 4.77,-2.66 0.15,-1.78 0.26,-4.11 0.34,-6.99 0.07,-2.89 0.14,-5.96 0.22,-9.22 0.07,-3.25 0.11,-6.59 0.11,-9.99 0,-3.4 0,-6.59 0,-9.55zm-16.21 -73.94c-1.04,0 -1.96,-0.51 -2.78,-1.55 -0.81,-1.04 -1.51,-2.22 -2.1,-3.55 -0.74,-1.48 -1.41,-3.19 -2,-5.11 2.51,-2.81 5.4,-5.77 8.66,-8.88 3.25,-3.11 6.36,-5.92 9.32,-8.44 2.96,-2.51 5.55,-4.59 7.77,-6.21 2.22,-1.63 3.56,-2.45 4,-2.45 1.04,0 2.04,0.45 3,1.34 0.96,0.88 1.77,2.03 2.44,3.44 0.67,1.4 1.26,2.88 1.78,4.44 0.51,1.55 0.85,2.99 1,4.33 -0.89,1.03 -2.67,2.59 -5.33,4.66 -2.67,2.07 -5.59,4.29 -8.77,6.66 -3.19,2.37 -6.33,4.59 -9.44,6.66 -3.11,2.07 -5.63,3.63 -7.55,4.66zm99.63 13.1c1.48,0 3.22,0.15 5.22,0.45 2,0.29 3.96,0.74 5.88,1.33l26.65 0c0.44,0.74 0.85,1.85 1.22,3.33 0.37,1.48 0.55,3.26 0.55,5.33 0,4.59 -2.07,6.88 -6.21,6.88 -2.08,0 -4.74,-0.37 -8,-1.11 2.52,2.52 4.55,5.78 6.11,9.77 1.55,4 2.33,8.74 2.33,14.21 0,11.84 -2.78,21.28 -8.33,28.31 -5.55,7.03 -14.76,10.55 -27.64,10.55 -4.14,0 -7.47,-0.3 -9.99,-0.89 -1.48,1.48 -2.81,3.11 -4,4.89 -1.18,1.77 -1.77,3.4 -1.77,4.88 0,1.04 0.66,1.89 1.99,2.55 1.34,0.67 3.19,1.23 5.56,1.67 2.36,0.44 5.14,0.89 8.32,1.33 3.18,0.45 6.63,0.89 10.33,1.33 4.44,0.74 8.43,1.67 11.99,2.78 3.55,1.11 6.62,2.66 9.21,4.66 2.59,2 4.59,4.48 6,7.44 1.4,2.96 2.11,6.66 2.11,11.1 0,4.74 -0.82,9.29 -2.45,13.66 -1.63,4.36 -4.18,8.21 -7.66,11.54 -3.48,3.33 -7.92,6 -13.32,8 -5.4,1.99 -11.8,2.99 -19.21,2.99 -7.4,0 -13.43,-0.7 -18.09,-2.11 -4.66,-1.4 -8.29,-3.29 -10.88,-5.66 -2.59,-2.37 -4.33,-4.96 -5.22,-7.77 -0.89,-2.81 -1.33,-5.7 -1.33,-8.66 0,-5.48 1.63,-10.47 4.88,-14.99 3.26,-4.51 7.26,-8.4 11.99,-11.65 -4.29,-1.19 -7.66,-2.78 -10.1,-4.78 -2.44,-2 -3.59,-4.47 -3.44,-7.43 0.15,-2.97 1.48,-6.18 4,-9.66 2.51,-3.48 5.92,-6.92 10.21,-10.33 -5.18,-3.4 -8.77,-8.03 -10.77,-13.87 -2,-5.85 -3,-12.33 -3,-19.43 0,-7.4 0.89,-13.69 2.67,-18.88 1.77,-5.18 4.29,-9.36 7.55,-12.54 3.25,-3.18 7.14,-5.52 11.65,-6.99 4.52,-1.49 9.51,-2.23 14.99,-2.23zm-0.66 13.33c-4.74,0 -8.78,2.03 -12.11,6.1 -3.33,4.07 -4.99,10.99 -4.99,20.76 0,4 0.22,7.55 0.66,10.66 0.45,3.11 1.26,5.74 2.45,7.88 1.18,2.15 2.85,3.78 4.99,4.89 2.15,1.11 4.92,1.66 8.33,1.66 5.92,0 10.21,-2.44 12.88,-7.32 2.66,-4.89 3.99,-12.22 3.99,-21.99 0,-8.14 -1.37,-13.95 -4.1,-17.43 -2.74,-3.47 -6.78,-5.21 -12.1,-5.21zm-5.33 95.69c-0.74,0 -1.41,-0.03 -2,-0.11 -0.59,-0.07 -1.26,-0.18 -2,-0.33 -3.26,2.52 -6.07,5.55 -8.44,9.1 -2.37,3.56 -3.55,7.18 -3.55,10.88 0,1.78 0.26,3.37 0.78,4.78 0.51,1.4 1.44,2.62 2.77,3.66 1.33,1.04 3.22,1.85 5.66,2.44 2.45,0.59 5.59,0.89 9.44,0.89 4,0 7.4,-0.52 10.21,-1.55 2.82,-1.04 5.15,-2.41 7,-4.11 1.85,-1.7 3.22,-3.55 4.11,-5.55 0.88,-2 1.33,-3.96 1.33,-5.89 0,-2.51 -0.41,-4.58 -1.22,-6.21 -0.82,-1.63 -2.19,-3 -4.11,-4.11 -1.92,-1.11 -4.51,-1.96 -7.77,-2.55 -3.26,-0.6 -7.33,-1.04 -12.21,-1.34zm135.37 -1.55c-4.29,2.37 -9.36,4.29 -15.2,5.77 -5.85,1.48 -11.81,2.22 -17.88,2.22 -6.66,0 -12.14,-0.74 -16.43,-2.22 -4.29,-1.48 -7.7,-3.77 -10.21,-6.88 -2.52,-3.11 -4.26,-6.96 -5.22,-11.55 -0.96,-4.59 -1.44,-9.99 -1.44,-16.21l0 -72.6c0,-0.89 0.11,-1.59 0.33,-2.11 0.22,-0.52 0.89,-0.89 2,-1.11 1.11,-0.22 2.92,-0.37 5.44,-0.44 2.51,-0.08 6.14,-0.11 10.88,-0.11l0 77.93c0,7.25 0.96,12.32 2.88,15.21 1.93,2.88 5.92,4.33 11.99,4.33 2.08,0 4.48,-0.26 7.22,-0.78 2.74,-0.52 5.29,-1.59 7.66,-3.22l0 -89.7c0,-0.89 0.11,-1.59 0.33,-2.11 0.22,-0.52 0.89,-0.89 2,-1.11 1.11,-0.22 2.89,-0.37 5.33,-0.44 2.44,-0.08 5.88,-0.11 10.32,-0.11l0 105.24zm28.58 -95.25c0,-1.19 0.19,-2.34 0.56,-3.45 0.37,-1.11 1,-2.03 1.89,-2.77 1.92,-1.18 5.92,-2.48 11.99,-3.89 6.06,-1.4 13.32,-2.11 21.76,-2.11 9.62,0 16.61,2 20.98,6 4.36,4 6.55,11.03 6.55,21.09l0 11.77c0,6.37 0,12.77 0,19.21 0,6.44 -0.08,12.65 -0.22,18.65 -0.15,5.99 -0.3,11.65 -0.45,16.98 -0.15,5.33 -0.37,10.07 -0.66,14.21 -2.97,1.78 -7.04,3.48 -12.22,5.11 -5.18,1.63 -11.39,2.44 -18.65,2.44 -3.99,0 -7.92,-0.29 -11.76,-0.89 -3.85,-0.59 -7.26,-2.07 -10.22,-4.44 -2.96,-2.36 -5.33,-5.81 -7.1,-10.32 -1.78,-4.52 -2.67,-10.55 -2.67,-18.1 0,-7.69 0.85,-13.91 2.56,-18.65 1.7,-4.73 3.92,-8.43 6.66,-11.1 2.73,-2.66 5.88,-4.44 9.43,-5.33 3.56,-0.89 7.18,-1.33 10.88,-1.33 2.52,0 5.29,0.18 8.33,0.55 3.03,0.37 5.66,1.15 7.88,2.34l0 -17.55c0,-5.18 -1.18,-8.65 -3.55,-10.43 -2.37,-1.78 -5.77,-2.67 -10.22,-2.67 -5.62,0 -11.1,0.49 -16.43,1.45 -5.32,0.96 -9.62,2.11 -12.87,3.44 -1.04,-1.78 -1.71,-3.59 -2,-5.44 -0.3,-1.85 -0.45,-3.44 -0.45,-4.77zm45.52 48.62c-1.48,-0.74 -3.18,-1.26 -5.11,-1.55 -1.92,-0.3 -3.7,-0.45 -5.33,-0.45 -2.22,0 -4.32,0.26 -6.32,0.78 -2,0.52 -3.74,1.59 -5.22,3.22 -1.48,1.63 -2.66,3.89 -3.55,6.77 -0.89,2.89 -1.34,6.77 -1.34,11.66 0,4 0.34,7.25 1,9.77 0.67,2.52 1.63,4.48 2.89,5.88 1.26,1.41 2.78,2.33 4.55,2.78 1.78,0.44 3.78,0.66 6,0.66 2.51,0 4.84,-0.37 6.99,-1.11 2.15,-0.74 3.74,-1.62 4.77,-2.66 0.15,-1.78 0.26,-4.11 0.34,-6.99 0.07,-2.89 0.15,-5.96 0.22,-9.22 0.07,-3.25 0.11,-6.59 0.11,-9.99 0,-3.4 0,-6.59 0,-9.55zm118.95 -60.84c18.8,0 28.2,11.92 28.2,35.75 0,4.89 -0.19,9.92 -0.56,15.1 -0.37,5.18 -1,9.77 -1.89,13.77 -3.84,0.74 -7.91,1.33 -12.21,1.77 -4.29,0.45 -8.55,0.82 -12.76,1.11 -4.22,0.3 -8.18,0.48 -11.88,0.56 -3.7,0.07 -6.89,0.11 -9.55,0.11 0.15,5.92 0.7,10.8 1.67,14.65 0.96,3.85 2.25,6.89 3.88,9.11 1.63,2.22 3.7,3.77 6.22,4.66 2.51,0.89 5.47,1.33 8.88,1.33 4.44,0 8.81,-0.63 13.1,-1.89 4.29,-1.25 8.36,-2.92 12.21,-4.99 0.59,1.63 1,3.63 1.22,5.99 0.22,2.37 0.34,4.44 0.34,6.22 0,1.78 -0.82,3.41 -2.45,4.89 -1.63,1.48 -3.85,2.77 -6.66,3.88 -2.81,1.11 -6.07,1.96 -9.77,2.55 -3.7,0.6 -7.62,0.89 -11.77,0.89 -5.18,0 -9.95,-0.66 -14.32,-2 -4.36,-1.33 -8.1,-3.88 -11.21,-7.66 -3.11,-3.77 -5.55,-9.06 -7.33,-15.87 -1.77,-6.81 -2.66,-15.62 -2.66,-26.42 0,-13.92 1.15,-25.06 3.44,-33.42 2.29,-8.36 5.25,-14.77 8.88,-19.21 3.63,-4.44 7.81,-7.36 12.55,-8.77 4.73,-1.4 9.54,-2.11 14.43,-2.11zm-2 15.77c-2.22,0 -4.37,0.55 -6.44,1.66 -2.07,1.11 -3.96,3.11 -5.66,6 -1.7,2.89 -3.11,6.73 -4.22,11.54 -1.11,4.82 -1.81,11 -2.11,18.55 2.07,0 4.44,0 7.11,0 2.66,0 5.36,-0.12 8.1,-0.34 2.74,-0.22 5.4,-0.48 7.99,-0.78 2.59,-0.29 4.85,-0.74 6.78,-1.33 0.44,-2.07 0.74,-4.29 0.88,-6.66 0.15,-2.37 0.23,-4.59 0.23,-6.66 -0.15,-7.99 -1.11,-13.65 -2.89,-16.98 -1.78,-3.34 -5.03,-5 -9.77,-5zm127.83 -15.77c1.48,0 3.22,0.15 5.22,0.45 2,0.29 3.96,0.74 5.88,1.33l26.65 0c0.44,0.74 0.85,1.85 1.22,3.33 0.37,1.48 0.55,3.26 0.55,5.33 0,4.59 -2.07,6.88 -6.21,6.88 -2.08,0 -4.74,-0.37 -8,-1.11 2.52,2.52 4.55,5.78 6.11,9.77 1.55,4 2.33,8.74 2.33,14.21 0,11.84 -2.78,21.28 -8.33,28.31 -5.55,7.03 -14.76,10.55 -27.64,10.55 -4.14,0 -7.48,-0.3 -9.99,-0.89 -1.48,1.48 -2.81,3.11 -4,4.89 -1.18,1.77 -1.77,3.4 -1.77,4.88 0,1.04 0.66,1.89 1.99,2.55 1.34,0.67 3.19,1.23 5.55,1.67 2.37,0.44 5.15,0.89 8.33,1.33 3.18,0.45 6.63,0.89 10.33,1.33 4.44,0.74 8.43,1.67 11.99,2.78 3.55,1.11 6.62,2.66 9.21,4.66 2.59,2 4.59,4.48 6,7.44 1.4,2.96 2.1,6.66 2.1,11.1 0,4.74 -0.81,9.29 -2.44,13.66 -1.63,4.36 -4.18,8.21 -7.66,11.54 -3.48,3.33 -7.92,6 -13.32,8 -5.4,1.99 -11.81,2.99 -19.21,2.99 -7.4,0 -13.43,-0.7 -18.09,-2.11 -4.67,-1.4 -8.29,-3.29 -10.88,-5.66 -2.59,-2.37 -4.33,-4.96 -5.22,-7.77 -0.89,-2.81 -1.33,-5.7 -1.33,-8.66 0,-5.48 1.63,-10.47 4.88,-14.99 3.26,-4.51 7.26,-8.4 11.99,-11.65 -4.29,-1.19 -7.66,-2.78 -10.1,-4.78 -2.44,-2 -3.59,-4.47 -3.44,-7.43 0.15,-2.97 1.48,-6.18 4,-9.66 2.51,-3.48 5.92,-6.92 10.21,-10.33 -5.18,-3.4 -8.77,-8.03 -10.77,-13.87 -2,-5.85 -3,-12.33 -3,-19.43 0,-7.4 0.89,-13.69 2.67,-18.88 1.77,-5.18 4.29,-9.36 7.55,-12.54 3.25,-3.18 7.14,-5.52 11.65,-6.99 4.52,-1.49 9.51,-2.23 14.99,-2.23zm-0.67 13.33c-4.73,0 -8.77,2.03 -12.1,6.1 -3.33,4.07 -4.99,10.99 -4.99,20.76 0,4 0.22,7.55 0.66,10.66 0.45,3.11 1.26,5.74 2.45,7.88 1.18,2.15 2.85,3.78 4.99,4.89 2.15,1.11 4.92,1.66 8.33,1.66 5.92,0 10.21,-2.44 12.88,-7.32 2.66,-4.89 3.99,-12.22 3.99,-21.99 0,-8.14 -1.37,-13.95 -4.11,-17.43 -2.73,-3.47 -6.77,-5.21 -12.1,-5.21zm-5.33 95.69c-0.73,0 -1.4,-0.03 -1.99,-0.11 -0.59,-0.07 -1.26,-0.18 -2,-0.33 -3.26,2.52 -6.07,5.55 -8.44,9.1 -2.37,3.56 -3.55,7.18 -3.55,10.88 0,1.78 0.26,3.37 0.78,4.78 0.51,1.4 1.44,2.62 2.77,3.66 1.33,1.04 3.22,1.85 5.66,2.44 2.45,0.59 5.59,0.89 9.44,0.89 4,0 7.4,-0.52 10.21,-1.55 2.82,-1.04 5.15,-2.41 7,-4.11 1.85,-1.7 3.22,-3.55 4.11,-5.55 0.88,-2 1.33,-3.96 1.33,-5.89 0,-2.51 -0.41,-4.58 -1.22,-6.21 -0.82,-1.63 -2.19,-3 -4.11,-4.11 -1.93,-1.11 -4.52,-1.96 -7.77,-2.55 -3.26,-0.6 -7.33,-1.04 -12.22,-1.34zm65.89 -96.8c0,-1.19 0.18,-2.34 0.55,-3.45 0.37,-1.11 1,-2.03 1.89,-2.77 1.92,-1.18 5.92,-2.48 11.99,-3.89 6.07,-1.4 13.32,-2.11 21.76,-2.11 9.62,0 16.61,2 20.98,6 4.37,4 6.55,11.03 6.55,21.09l0 11.77c0,6.37 0,12.77 0,19.21 0,6.44 -0.07,12.65 -0.22,18.65 -0.15,5.99 -0.3,11.65 -0.45,16.98 -0.14,5.33 -0.37,10.07 -0.66,14.21 -2.96,1.78 -7.03,3.48 -12.21,5.11 -5.18,1.63 -11.4,2.44 -18.65,2.44 -4,0 -7.92,-0.29 -11.77,-0.89 -3.85,-0.59 -7.26,-2.07 -10.22,-4.44 -2.96,-2.36 -5.32,-5.81 -7.1,-10.32 -1.78,-4.52 -2.67,-10.55 -2.67,-18.1 0,-7.69 0.86,-13.91 2.56,-18.65 1.7,-4.73 3.92,-8.43 6.66,-11.1 2.74,-2.66 5.88,-4.44 9.43,-5.33 3.56,-0.89 7.19,-1.33 10.88,-1.33 2.52,0 5.3,0.18 8.33,0.55 3.04,0.37 5.66,1.15 7.88,2.34l0 -17.55c0,-5.18 -1.18,-8.65 -3.55,-10.43 -2.37,-1.78 -5.77,-2.67 -10.21,-2.67 -5.63,0 -11.1,0.49 -16.43,1.45 -5.33,0.96 -9.62,2.11 -12.88,3.44 -1.04,-1.78 -1.7,-3.59 -2,-5.44 -0.3,-1.85 -0.44,-3.44 -0.44,-4.77zm45.51 48.62c-1.48,-0.74 -3.18,-1.26 -5.1,-1.55 -1.93,-0.3 -3.7,-0.45 -5.33,-0.45 -2.22,0 -4.33,0.26 -6.33,0.78 -2,0.52 -3.74,1.59 -5.22,3.22 -1.48,1.63 -2.66,3.89 -3.55,6.77 -0.89,2.89 -1.33,6.77 -1.33,11.66 0,4 0.33,7.25 1,9.77 0.66,2.52 1.62,4.48 2.88,5.88 1.26,1.41 2.78,2.33 4.55,2.78 1.78,0.44 3.78,0.66 6,0.66 2.52,0 4.85,-0.37 6.99,-1.11 2.15,-0.74 3.74,-1.62 4.78,-2.66 0.15,-1.78 0.26,-4.11 0.33,-6.99 0.08,-2.89 0.15,-5.96 0.22,-9.22 0.08,-3.25 0.11,-6.59 0.11,-9.99 0,-3.4 0,-6.59 0,-9.55zm-16.21 -73.94c-1.03,0 -1.96,-0.51 -2.77,-1.55 -0.81,-1.04 -1.52,-2.22 -2.11,-3.55 -0.74,-1.48 -1.41,-3.19 -2,-5.11 2.52,-2.81 5.41,-5.77 8.66,-8.88 3.26,-3.11 6.37,-5.92 9.33,-8.44 2.96,-2.51 5.55,-4.59 7.77,-6.21 2.22,-1.63 3.55,-2.45 3.99,-2.45 1.04,0 2.04,0.45 3,1.34 0.96,0.88 1.78,2.03 2.44,3.44 0.67,1.4 1.26,2.88 1.78,4.44 0.52,1.55 0.85,2.99 1,4.33 -0.89,1.03 -2.66,2.59 -5.33,4.66 -2.66,2.07 -5.59,4.29 -8.77,6.66 -3.18,2.37 -6.33,4.59 -9.44,6.66 -3.1,2.07 -5.62,3.63 -7.55,4.66zm97.19 13.1c5.78,0 10.48,0.45 14.1,1.34 3.63,0.89 6.48,1.96 8.55,3.22 2.07,1.25 3.48,2.62 4.22,4.1 0.74,1.48 1.11,2.74 1.11,3.78 0,3.11 -1.33,6.14 -4,9.1 -6.36,-3.85 -13.62,-5.77 -21.76,-5.77 -5.18,0 -9.4,0.92 -12.65,2.77 -3.26,1.85 -4.89,4.48 -4.89,7.89 0,2.07 0.52,4.1 1.56,6.1 1.03,2 3.48,4.55 7.32,7.66l20.65 16.66c4.74,4.73 8.11,9.14 10.11,13.21 1.99,4.07 2.99,8.91 2.99,14.54 0,9.92 -3.25,17.54 -9.76,22.87 -6.52,5.33 -15.47,7.99 -26.87,7.99 -7.99,0 -14.51,-0.92 -19.54,-2.77 -5.03,-1.85 -7.55,-4.7 -7.55,-8.55 0,-1.33 0.22,-2.89 0.67,-4.66 0.44,-1.78 1.25,-3.7 2.44,-5.78 6.36,3.7 13.76,5.55 22.2,5.55 5.63,0 10.03,-1.18 13.21,-3.55 3.19,-2.37 4.78,-5.77 4.78,-10.21 0,-2.96 -0.63,-5.85 -1.89,-8.66 -1.26,-2.81 -3.59,-5.7 -6.99,-8.66l-21.54 -18.43c-5.03,-4.14 -8.4,-8.18 -10.1,-12.1 -1.71,-3.92 -2.56,-7.74 -2.56,-11.44 0,-7.69 2.93,-13.98 8.77,-18.87 5.85,-4.88 14.99,-7.33 27.42,-7.33z"/>
   </g>
   <path class="fil1" d="M1411 431.38c-66.4,151.94 -78.59,220.42 -44.15,343.07 73.93,215.85 266.43,142.65 233.3,-3.67 -27.97,-118.8 -222.14,-77.56 -189.15,-339.4z"/>
   <path class="fil1" d="M1544.72 304.64c-149.83,-31.15 -214,-29.19 -318.25,25.18 -180.94,107.71 -78.33,267.71 47.55,210.03 102.01,-47.79 27.94,-215.36 270.7,-235.21z"/>
   <path class="fil1" d="M1730.37 386.5c-18.47,-151.92 -40.88,-212.08 -125.76,-293.42 -159.99,-136.93 -278.7,11.52 -183.75,112.31 77.94,81.32 212.96,-42.51 309.51,181.11z"/>
   <path class="fil0" d="M1717.38 593.42c141.45,-58.4 193.43,-96.08 249.13,-199.62 89.18,-190.76 -85.6,-265.48 -157.34,-147.04 -57.53,96.84 97.88,193.85 -91.79,346.66z"/>
  </g>
  <rect class="fil3" width="3120" height="1827.33"/>
 </g>
</svg>
